<svg xmlns="http://www.w3.org/2000/svg" width="192" height="192" viewBox="0 0 192 192" role="img" aria-label="Readify icon">
  <rect width="192" height="192" rx="36" fill="#3a57ff" />
  <path d="M54 54h64a20 20 0 0 1 20 20v64a0 0 0 0 1 0 0H74a20 20 0 0 0-20 20V54z" fill="#ffffff" opacity="0.18" />
  <path d="M70 66h50a14 14 0 0 1 14 14v60H84a14 14 0 0 0-14 14V66z" fill="#ffffff" />
  <rect x="82" y="84" width="42" height="8" rx="4" fill="#3a57ff" opacity="0.8" />
  <rect x="82" y="102" width="42" height="8" rx="4" fill="#3a57ff" opacity="0.6" />
  <rect x="82" y="120" width="32" height="8" rx="4" fill="#3a57ff" opacity="0.5" />
</svg>
